<?xml version="1.0" encoding="UTF-8" standalone="no"?>
<!-- Created with Inkscape (http://www.inkscape.org/) -->

<svg
   width="51.197136mm"
   height="8.66644mm"
   viewBox="0 0 51.197136 8.66644"
   version="1.1"
   id="svg1"
   xmlns="http://www.w3.org/2000/svg"
   xmlns:svg="http://www.w3.org/2000/svg">
  <defs
     id="defs1" />
  <g
     id="layer1"
     transform="translate(-79.639583,-144.1979)">
    <path
       style="fill:#1a1a1a;stroke-width:0.264583"
       id="path21"
       d="m 89.52521,149.68696 c -0.443706,0 -0.803011,-0.36089 -0.803011,-0.80486 0,-0.44397 0.35904,-0.80381 0.803011,-0.80381 0.445558,0 0.804069,0.35984 0.804069,0.80381 0,0.44397 -0.358511,0.80486 -0.804069,0.80486 m -5.903119,-1.60787 c -0.443706,0 -0.804862,0.35904 -0.804862,0.80301 0,0.44397 0.360627,0.80486 0.804862,0.80486 0.442913,0 0.803275,-0.36089 0.803275,-0.80486 0,-0.44397 -0.360627,-0.80301 -0.803275,-0.80301 m -7.94e-4,-1.58486 h 5.973234 c 1.31736,0 2.388393,1.07077 2.388393,2.3884 0,1.31736 -1.071298,2.38945 -2.388393,2.38945 h -5.973234 c -1.316831,0 -2.389187,-1.07236 -2.389187,-2.38945 -2.65e-4,-1.31763 1.072356,-2.3884 2.389187,-2.3884 m 5.973234,6.37011 c 2.195777,0 3.981185,-1.78594 3.981185,-3.98171 0,-2.19578 -1.785408,-3.98225 -3.981185,-3.98225 h -5.973234 c -2.195777,0 -3.981714,1.78647 -3.981714,3.98225 0,2.19577 1.785937,3.98171 3.981714,3.98171 h 5.973234 m 29.659519,-5.8084 c 0,-0.38444 -0.31617,-0.69664 -0.70432,-0.69664 -0.38496,0 -0.69823,0.3122 -0.69823,0.69664 0,0.38921 0.31327,0.70697 0.69823,0.70697 0.38788,0 0.70432,-0.31803 0.70432,-0.70697 z m -17.67045,1.44066 c 0,-1.26048 -0.76544,-2.14127 -1.86029,-2.14127 -0.536311,0 -1.009121,0.22516 -1.381919,0.65352 -0.388144,-0.43948 -0.833967,-0.65352 -1.356519,-0.65352 -1.101196,0 -1.869546,0.88079 -1.869546,2.14127 v 2.76913 h 1.008592 v -2.81623 c 0,-0.63923 0.353483,-1.08585 0.860954,-1.08585 0.427831,0 0.859896,0.3728 0.859896,1.08585 v 2.81649 h 1.018117 v -2.81649 c 0,-0.63923 0.354012,-1.08585 0.860425,-1.08585 0.49292,0 0.85116,0.45694 0.85116,1.08585 v 2.81649 h 1.00913 z m 1.83964,-2.0193 h -1.01758 v 4.78869 h 1.01758 z m 0.15055,-1.35678 c 0,-0.36434 -0.28998,-0.64929 -0.65934,-0.64929 -0.37042,0 -0.64902,0.27887 -0.64902,0.64929 0,0.36988 0.28522,0.65987 0.64902,0.65987 0.3638,0 0.65934,-0.29554 0.65934,-0.65987 z m 4.84928,5.53349 0.1524,-0.13785 -0.74824,-0.70326 -0.12912,0.12039 c -0.33125,0.304 -0.66251,0.44608 -1.04378,0.44608 -0.81068,0 -1.47028,-0.67654 -1.47028,-1.50786 0,-0.82576 0.65933,-1.49754 1.47028,-1.49754 0.37889,0 0.70009,0.13785 1.04484,0.44794 l 0.13547,0.12171 0.72707,-0.74136 -0.12964,-0.13282 c -0.46408,-0.4744 -1.06257,-0.71332 -1.77774,-0.71332 -0.65061,0 -1.28825,0.2704 -1.74757,0.7403 -0.45984,0.45879 -0.71199,1.08982 -0.71199,1.77509 0,0.68686 0.25215,1.31736 0.71014,1.77404 0.46858,0.47916 1.08929,0.74374 1.75022,0.74374 0.63526,-7.9e-4 1.22951,-0.24792 1.76794,-0.73528 z m 1.91823,-1.83806 c 0,-0.87894 0.30295,-1.23984 1.11575,-1.33059 l 0.1696,-0.0185 v -1.00462 l -0.20558,0.0153 c -1.48934,0.12118 -2.15451,0.85911 -2.15451,2.39395 v 2.39475 h 1.07474 z m 5.82031,1.83171 c 0.46619,-0.46461 0.72204,-1.09696 0.72204,-1.77668 0,-0.67865 -0.25585,-1.30995 -0.72046,-1.77323 -0.46831,-0.47863 -1.08611,-0.74242 -1.7399,-0.74242 -0.65934,0 -1.28058,0.26379 -1.74969,0.74242 -0.46355,0.47413 -0.71993,1.10437 -0.71993,1.77323 0,0.6694 0.25638,1.3007 0.71993,1.77457 0.46858,0.47889 1.09035,0.74295 1.74969,0.74295 0.65405,0 1.27212,-0.26406 1.73832,-0.74084 z m -0.32518,-1.77641 c 0,0.84137 -0.62468,1.49886 -1.42266,1.49886 -0.7792,0 -1.41446,-0.6723 -1.41446,-1.49886 0,-0.83 0.63447,-1.5068 1.41446,-1.5068 0.78396,-5.3e-4 1.42266,0.6768 1.42266,1.5068 z m 3.41762,1.6981 c 0,-0.38841 -0.31617,-0.70565 -0.70432,-0.70565 -0.38496,0 -0.69823,0.31724 -0.69823,0.70565 0,0.38443 0.31327,0.69638 0.69823,0.69638 0.38788,0 0.70432,-0.31195 0.70432,-0.69638 z m 5.16123,0.0783 c 0.46567,-0.46461 0.72231,-1.09696 0.72231,-1.77668 0,-0.66886 -0.25744,-1.29936 -0.72204,-1.77323 -0.46197,-0.47281 -1.0795,-0.7329 -1.73937,-0.7329 -0.53843,0 -1.016,0.15134 -1.45098,0.46143 v -2.62837 h -1.00965 l 0.002,4.12274 c -0.01,0.10875 -0.01,0.21722 -0.01,0.31697 0,1.61899 1.01494,2.75061 2.46856,2.75061 0.65484,2.7e-4 1.27185,-0.26379 1.73884,-0.74057 z m -0.26802,-1.76662 c 0,0.82629 -0.65987,1.49754 -1.47082,1.49754 -0.82418,0 -1.47029,-0.65722 -1.47029,-1.49754 0,-0.83159 0.65987,-1.5076 1.47029,-1.5076 0.81095,0 1.47082,0.67628 1.47082,1.5076 z m 2.87893,-2.40374 h -1.01759 v 4.78869 h 1.01759 z m 0.15134,-1.35678 c 0,-0.36434 -0.29051,-0.64929 -0.65934,-0.64929 -0.37042,0 -0.65008,0.27887 -0.65008,0.64929 0,0.36988 0.28469,0.65987 0.65008,0.65987 0.36327,0 0.65934,-0.29554 0.65934,-0.65987 z m 3.65919,5.2279 -0.16378,-0.0236 c -0.75538,-0.10821 -1.09352,-0.55668 -1.09352,-1.45389 v -1.35625 h 1.2573 v -0.97208 h -1.2573 v -1.05992 h -1.02844 v 1.05992 h -0.43973 v 0.97208 h 0.43973 v 1.19724 c 0,1.64439 0.55907,2.36326 2.05926,2.65351 l 0.22621,0.0434 v -1.06045 z"
       class="" />
  </g>
</svg>
