<?xml version="1.0" encoding="UTF-8" standalone="no"?>
<!-- Created with Inkscape (http://www.inkscape.org/) -->

<svg
   width="179.66496mm"
   height="168.8029mm"
   viewBox="0 0 179.66496 168.8029"
   version="1.1"
   id="svg1"
   xml:space="preserve"
   inkscape:version="1.4 (86a8ad7, 2024-10-11)"
   sodipodi:docname="Microsoft_Access_2013-2019_logo.svg"
   xmlns:inkscape="http://www.inkscape.org/namespaces/inkscape"
   xmlns:sodipodi="http://sodipodi.sourceforge.net/DTD/sodipodi-0.dtd"
   xmlns="http://www.w3.org/2000/svg"
   xmlns:svg="http://www.w3.org/2000/svg"><sodipodi:namedview
     id="namedview1"
     pagecolor="#ffffff"
     bordercolor="#000000"
     borderopacity="0.25"
     inkscape:showpageshadow="2"
     inkscape:pageopacity="0.0"
     inkscape:pagecheckerboard="0"
     inkscape:deskcolor="#d1d1d1"
     inkscape:document-units="mm"
     inkscape:clip-to-page="false"
     inkscape:zoom="0.72515432"
     inkscape:cx="359.92339"
     inkscape:cy="233.05384"
     inkscape:window-width="1920"
     inkscape:window-height="1009"
     inkscape:window-x="-8"
     inkscape:window-y="-8"
     inkscape:window-maximized="1"
     inkscape:current-layer="layer1" /><defs
     id="defs1" /><g
     inkscape:label="Réteg 1"
     inkscape:groupmode="layer"
     id="layer1"
     transform="translate(-9.7894691,-86.751687)"><path
       style="fill:#e5173e;fill-opacity:1"
       d="m 104.51795,255.54123 c -0.0671,-0.0132 -1.93481,-0.36417 -4.15039,-0.77984 -2.215579,-0.41566 -5.126956,-0.96261 -6.46973,-1.21543 -1.342773,-0.25282 -11.977539,-2.25227 -23.632812,-4.44321 -23.704846,-4.456 -27.239269,-5.12047 -31.298828,-5.8841 -1.557617,-0.293 -7.807089,-1.46819 -13.887716,-2.61154 -6.575346,-1.23637 -11.205666,-2.12904 -11.425781,-2.20274 -2.127567,-0.71237 -3.597126,-2.58108 -3.8120439,-4.84744 -0.06824,-0.71957 -0.06824,-124.097 0,-124.81657 0.121656,-1.28288 0.6048469,-2.38465 1.4518979,-3.31061 0.630554,-0.68929 1.504658,-1.25294 2.380674,-1.53513 0.436284,-0.14054 0.176146,-0.09 8.447266,-1.64284 3.303222,-0.62018 9.675293,-1.81756 14.160156,-2.660849 4.484863,-0.843289 20.206299,-3.798939 34.936523,-6.568112 14.730225,-2.769173 28.243408,-5.313022 30.029304,-5.652996 l 3.24707,-0.618136 0.83008,0.002 c 0.74366,0.0018 0.88091,0.01562 1.31836,0.133243 1.82465,0.4906 3.32131,1.890136 3.90925,3.655555 0.28005,0.840903 0.27806,0.807006 0.30038,5.130133 0.0162,3.14939 0.0335,3.991699 0.0816,3.991699 0.0336,0 0.55392,-0.07556 1.15636,-0.167913 5.04514,-0.773405 10.43181,-1.2473 16.42738,-1.445205 3.21011,-0.105962 8.7244,-0.06021 12.13379,0.100662 16.70491,0.788247 31.16674,4.160919 39.62283,9.240519 2.12485,1.2764 3.73112,2.51465 5.15301,3.97238 1.23242,1.26347 2.10347,2.46739 2.78148,3.84444 0.60405,1.22684 0.94316,2.32932 1.15857,3.76664 0.0841,0.56121 0.0878,2.76218 0.0878,52.14844 0,41.79499 -0.0119,51.65037 -0.0629,52.02636 -0.38305,2.82463 -1.59366,5.29699 -3.66546,7.48579 -3.02633,3.19723 -7.43391,5.80036 -13.55679,8.00671 -8.15546,2.93878 -19.0782,4.8746 -30.9082,5.47783 -5.15421,0.26283 -10.82334,0.26275 -15.94239,-2e-4 -4.60139,-0.23636 -9.217,-0.69871 -13.41327,-1.3436 -0.51573,-0.0793 -0.96068,-0.14411 -0.98877,-0.14411 -0.0351,0 -0.0512,1.12746 -0.0516,3.60108 -2.8e-4,2.06462 -0.022,3.8459 -0.0508,4.17488 -0.1232,1.40429 -0.6233,2.50267 -1.58439,3.47988 -0.77418,0.78716 -1.56725,1.25061 -2.60403,1.52174 -0.38524,0.10074 -0.61146,0.12634 -1.22898,0.13909 -0.41626,0.009 -0.81177,0.005 -0.87891,-0.008 z m 34.13086,-22.52634 c 8.81073,-0.35847 15.98459,-1.28425 22.8671,-2.95096 8.2039,-1.98671 15.07329,-5.13392 16.5372,-7.57652 l 0.1709,-0.28515 0.0126,-9.97505 c 0.007,-5.48627 10e-4,-9.97504 -0.0128,-9.97504 -0.014,0 -0.3492,0.16205 -0.74498,0.36013 -3.10318,1.553 -7.44135,3.09462 -12.02332,4.27262 -15.39143,3.95707 -36.21798,4.77427 -53.59882,2.10315 -0.51573,-0.0793 -0.94969,-0.14411 -0.96436,-0.14411 -0.0147,0 -0.0267,5.04273 -0.0267,11.20606 0,7.22704 0.0169,11.20605 0.0475,11.20605 0.0261,0 0.62487,0.0976 1.33056,0.21683 5.2263,0.88318 11.1004,1.42277 17.31023,1.59012 1.81789,0.049 7.43909,0.0192 9.09492,-0.0481 z M 38.819705,204.88061 c 0.471388,-0.0706 1.146022,-0.29286 1.608066,-0.52975 1.107252,-0.56767 1.949849,-1.43236 2.490966,-2.55629 0.155584,-0.32315 1.22828,-3.21988 2.646721,-7.14725 l 2.385107,-6.60386 12.385546,-1.4e-4 12.385547,-1.4e-4 0.07169,0.20752 c 0.59541,1.72349 4.832756,13.29819 4.969518,13.5747 0.690262,1.39561 1.963743,2.4681 3.431456,2.88988 0.607615,0.17462 0.948945,0.22164 1.611852,0.22206 2.73259,0.002 5.004282,-1.9073 5.522901,-4.64124 0.109753,-0.57857 0.09881,-1.50353 -0.02498,-2.11097 -0.07642,-0.37499 -2.80401,-7.94683 -11.356647,-31.52623 -6.190841,-17.06799 -11.31986,-31.19751 -11.39782,-31.39892 -0.587806,-1.51865 -2.055257,-2.65511 -3.951602,-3.06032 -0.575721,-0.12302 -1.957399,-0.12458 -2.522427,-0.003 -1.814683,0.39095 -3.109722,1.32585 -3.803489,2.74579 -0.168858,0.3456 -22.072427,60.62713 -22.702252,62.47961 -0.255375,0.75112 -0.335132,1.30474 -0.304309,2.1123 0.0325,0.85151 0.172036,1.43373 0.516357,2.15454 0.306695,0.64204 0.565162,1.02049 1.028257,1.50559 1.320835,1.3836 3.078744,1.97523 5.009542,1.68597 z m 13.271201,-28.27542 c 0.03548,-0.0873 1.897954,-5.21773 4.138839,-11.401 2.240884,-6.18326 4.085322,-11.24218 4.098749,-11.24202 0.01343,1.5e-4 1.815186,4.93683 4.003907,10.97039 2.18872,6.03355 4.049924,11.16388 4.136008,11.40071 l 0.156516,0.43061 h -8.299261 -8.299261 z m 85.093064,22.66885 c 6.85214,-0.19414 12.87141,-0.77326 18.5791,-1.7875 8.57537,-1.52382 15.99296,-4.0192 20.09482,-6.76016 1.11016,-0.74183 1.93397,-1.51515 2.23184,-2.09502 l 0.15869,-0.30893 v -9.93373 c 0,-5.46355 -0.0165,-9.92546 -0.0366,-9.91535 -5.83743,2.93132 -13.01297,5.06844 -21.84204,6.50531 -5.53383,0.9006 -10.87708,1.41359 -17.67212,1.69665 -1.91746,0.0799 -8.8463,0.0798 -10.81543,-5e-5 -4.81762,-0.19547 -8.69718,-0.49992 -12.59766,-0.98861 -1.56272,-0.1958 -3.82508,-0.51909 -4.28466,-0.61228 l -0.13428,-0.0272 v 11.20994 c 0,6.16546 0.009,11.20993 0.0204,11.20993 0.0112,0 0.599,0.0974 1.30615,0.21637 5.17833,0.87143 11.07706,1.42202 16.98396,1.5853 2.06237,0.057 6.08983,0.0597 8.00781,0.005 z m 1.85547,-33.83551 c 7.63821,-0.34052 13.7328,-1.05795 19.77539,-2.32787 7.78876,-1.63691 14.46397,-4.14932 17.78236,-6.69293 0.63672,-0.48806 1.30464,-1.19266 1.4987,-1.58099 l 0.15253,-0.30525 v -9.92922 -9.92921 l -0.42724,0.2143 c -5.37144,2.69428 -12.8137,4.89204 -21.25245,6.276 -5.56876,0.91328 -10.91389,1.4344 -17.67578,1.72328 -1.93466,0.0827 -9.21093,0.0828 -11.18164,2.7e-4 -6.06231,-0.25395 -10.66509,-0.67664 -15.82031,-1.45283 -0.44312,-0.0667 -0.8551,-0.13228 -0.91553,-0.1457 l -0.10986,-0.0244 v 11.20698 c 0,6.16384 0.0112,11.20699 0.0248,11.20699 0.0137,0 0.60143,0.0976 1.30615,0.21683 2.22752,0.37696 4.30364,0.6599 6.628,0.90328 3.73951,0.39157 5.94343,0.53378 10.9375,0.70577 0.98566,0.0339 8.1884,-0.0168 9.27735,-0.0653 z m 0.19531,-33.78833 c 0.60425,-0.029 1.70288,-0.0865 2.44141,-0.12784 10.69076,-0.59837 20.54469,-2.46481 27.95839,-5.29563 5.06882,-1.93546 8.61387,-4.29818 8.61387,-5.74101 0,-1.71222 -4.56012,-4.45287 -10.97062,-6.59338 -11.34094,-3.78681 -27.03844,-5.39741 -42.98446,-4.41032 -4.38762,0.27161 -8.46614,0.73786 -12.47558,1.4262 l -0.92774,0.15928 -0.0123,9.40537 -0.0123,9.40536 0.10999,0.0266 c 0.22689,0.0549 2.83429,0.47427 3.82092,0.6145 2.76491,0.39299 5.71175,0.69985 8.69141,0.90505 1.98777,0.1369 2.6421,0.16827 6.05469,0.29032 0.99127,0.0354 8.67393,-0.0157 9.69238,-0.0645 z"
       id="path1" /></g></svg>
