<?xml version="1.0" encoding="UTF-8" standalone="no"?>
<!-- Created with Inkscape (http://www.inkscape.org/) -->

<svg
   width="132.09413mm"
   height="80.917778mm"
   viewBox="0 0 132.09413 80.917778"
   version="1.1"
   id="svg1"
   xml:space="preserve"
   inkscape:version="1.4 (86a8ad7, 2024-10-11)"
   sodipodi:docname="nkp_logo.svg"
   xmlns:inkscape="http://www.inkscape.org/namespaces/inkscape"
   xmlns:sodipodi="http://sodipodi.sourceforge.net/DTD/sodipodi-0.dtd"
   xmlns="http://www.w3.org/2000/svg"
   xmlns:svg="http://www.w3.org/2000/svg"><sodipodi:namedview
     id="namedview1"
     pagecolor="#ffffff"
     bordercolor="#000000"
     borderopacity="0.25"
     inkscape:showpageshadow="2"
     inkscape:pageopacity="0.0"
     inkscape:pagecheckerboard="0"
     inkscape:deskcolor="#d1d1d1"
     inkscape:document-units="mm"
     inkscape:zoom="1.0255231"
     inkscape:cx="220.8629"
     inkscape:cy="30.228476"
     inkscape:window-width="1920"
     inkscape:window-height="1009"
     inkscape:window-x="-8"
     inkscape:window-y="-8"
     inkscape:window-maximized="1"
     inkscape:current-layer="layer1" /><defs
     id="defs1" /><g
     inkscape:label="Réteg 1"
     inkscape:groupmode="layer"
     id="layer1"
     transform="translate(-37.77408,-115.34248)"><path
       style="fill:#206847;fill-opacity:1"
       d="m 119.4985,195.53084 c 0,-0.56888 12.33937,-50.49778 14.50335,-58.68502 l 0.4778,-1.80774 h 4.36238 4.36237 l -0.33578,1.98745 -0.33578,1.98745 2.22982,-1.53416 c 6.2326,-4.28814 15.69511,-4.65928 20.73735,-0.81338 7.62212,5.81368 4.85607,24.63065 -5.08769,34.61067 -7.58535,7.61302 -19.58098,9.69208 -25.14903,4.35879 -1.74364,-1.67012 -1.55745,-2.08267 -4.61024,10.21499 l -2.58428,10.41037 h -4.28514 c -3.50413,0 -4.28513,-0.13294 -4.28513,-0.72942 z m 30.12902,-25.96615 c 9.87382,-4.65661 14.95703,-23.04089 7.4556,-26.96438 -2.18808,-1.14444 -7.13301,-0.88662 -9.87779,0.515 -2.17759,1.11199 -5.98862,4.96935 -7.17355,7.26075 -1.25338,2.42378 -3.17643,10.2376 -3.17775,12.91201 -0.003,6.1905 6.34352,9.30907 12.77349,6.27662 z M 43.083757,156.24891 48.39343,135.03808 h 4.429075 4.429074 l -0.278955,1.719 -0.278955,1.719 1.791634,-1.21584 c 3.54858,-2.40813 6.83796,-3.28279 11.68186,-3.10628 l 4.418841,0.16102 2.046096,1.4462 c 1.125352,0.7954 2.499273,2.31391 3.053156,3.37445 l 1.007061,1.92825 -0.05598,4.82065 -0.05598,4.82064 -3.333909,13.25677 -3.333909,13.25678 -4.443658,0.1386 c -2.444013,0.0762 -4.443659,0.0297 -4.443659,-0.10332 0,-0.13307 1.518502,-6.34676 3.37445,-13.80821 3.447179,-13.85865 3.775972,-16.02455 2.840122,-18.70913 -1.356238,-3.89051 -8.041602,-3.95549 -12.877782,-0.12516 -3.673032,2.90909 -4.708881,5.24946 -7.857094,17.75207 -1.589989,6.31438 -3.103382,12.29418 -3.363096,13.28844 l -0.472208,1.80774 H 42.221847 37.77408 Z m 40.756232,20.60826 c 0.0078,-0.33142 3.437508,-14.26911 7.621483,-30.97264 l 7.607239,-30.37006 4.430119,-0.1386 c 2.43657,-0.0762 4.43012,-0.0175 4.43012,0.13057 0,0.14805 -1.9605,8.10211 -4.35667,17.67569 -2.39618,9.57358 -4.276489,17.4867 -4.178479,17.5847 0.098,0.098 4.353409,-3.40087 9.456449,-7.77528 l 9.27826,-7.95347 h 6.08411 c 3.62495,0 5.89901,0.17543 5.62616,0.43403 -0.25188,0.23872 -5.01347,4.17618 -10.58132,8.74991 -14.18818,11.65496 -13.89045,11.38704 -13.46276,12.11476 0.20533,0.34938 3.58961,5.11422 7.52062,10.58854 3.93102,5.47432 7.14731,10.08406 7.14731,10.24387 0,0.15981 -2.65738,0.28566 -5.90529,0.27967 l -5.90529,-0.0109 -5.76793,-8.71525 c -4.593419,-6.94058 -5.842829,-8.53349 -6.135779,-7.82266 -0.20231,0.49092 -1.03497,3.6042 -1.85034,6.91839 -0.81537,3.31419 -1.696189,6.83929 -1.957379,7.83355 l -0.47489,1.80774 h -4.319998 c -3.142224,0 -4.316113,-0.16428 -4.305745,-0.60258 z"
       id="path1" /></g></svg>
