<?xml version="1.0" encoding="UTF-8" standalone="no"?>
<!-- Created with Inkscape (http://www.inkscape.org/) -->

<svg
   width="145.67871mm"
   height="137.53322mm"
   viewBox="0 0 145.67871 137.53322"
   version="1.1"
   id="svg1"
   xml:space="preserve"
   inkscape:version="1.4 (86a8ad7, 2024-10-11)"
   sodipodi:docname="w3schools_logo.svg"
   xmlns:inkscape="http://www.inkscape.org/namespaces/inkscape"
   xmlns:sodipodi="http://sodipodi.sourceforge.net/DTD/sodipodi-0.dtd"
   xmlns="http://www.w3.org/2000/svg"
   xmlns:svg="http://www.w3.org/2000/svg"><sodipodi:namedview
     id="namedview1"
     pagecolor="#ffffff"
     bordercolor="#000000"
     borderopacity="0.25"
     inkscape:showpageshadow="2"
     inkscape:pageopacity="0.0"
     inkscape:pagecheckerboard="0"
     inkscape:deskcolor="#d1d1d1"
     inkscape:document-units="mm"
     inkscape:zoom="0.72515432"
     inkscape:cx="275.11385"
     inkscape:cy="260.63418"
     inkscape:window-width="1920"
     inkscape:window-height="1009"
     inkscape:window-x="-8"
     inkscape:window-y="-8"
     inkscape:window-maximized="1"
     inkscape:current-layer="layer1" /><defs
     id="defs1" /><g
     inkscape:label="Réteg 1"
     inkscape:groupmode="layer"
     id="layer1"
     transform="translate(-32.070314,-79.639595)"><path
       style="fill:#04aa6d;fill-opacity:1"
       d="m 37.83542,216.84517 c -3.135304,-0.87013 -4.996445,-2.57824 -5.57036,-5.11236 l -0.194746,-0.85989 h 2.221095 c 2.010268,0 2.221095,0.048 2.221095,0.50565 0,0.2781 0.353055,0.80272 0.784568,1.16581 2.465834,2.07487 6.943723,0.11015 5.575543,-2.44632 -0.303691,-0.56745 -1.032576,-0.87659 -3.84657,-1.63143 -4.030526,-1.08117 -5.597613,-2.29075 -6.230631,-4.8092 -1.109538,-4.41428 3.945324,-8.05945 9.282946,-6.69412 2.829886,0.72386 4.475011,2.23743 4.901212,4.50928 l 0.175156,0.93366 h -2.278404 c -1.715709,0 -2.278404,-0.0866 -2.278404,-0.35075 0,-0.19292 -0.307248,-0.6394 -0.682774,-0.99219 -0.52841,-0.49642 -0.972227,-0.64143 -1.963059,-0.64143 -1.992465,0 -2.97078,1.14495 -2.494132,2.91896 0.174852,0.65077 0.824003,0.94017 4.049397,1.80525 4.470673,1.19909 6.104864,2.76917 6.113299,5.87347 0.008,2.9457 -1.89366,4.92801 -5.555479,5.79105 -2.013043,0.47445 -2.626666,0.47946 -4.229752,0.0346 z m 22.829086,-0.0409 c -5.971949,-1.00625 -9.65807,-6.66525 -8.172116,-12.54599 1.488341,-5.89019 8.045407,-9.10316 14.01763,-6.86867 1.27783,0.4781 3.869149,2.39338 3.869149,2.85975 0,0.0987 -0.670543,0.70314 -1.490096,1.34322 -1.220091,0.9529 -1.567674,1.10858 -1.918229,0.85918 -1.595896,-1.13541 -2.605079,-1.48347 -4.285195,-1.4779 -3.309449,0.011 -5.549188,2.07794 -5.755063,5.31114 -0.182231,2.86188 1.099176,5.04584 3.565114,6.07617 1.767194,0.73839 4.436757,0.36686 6.071348,-0.84496 l 0.818087,-0.60649 1.430871,1.17352 c 0.786979,0.64543 1.466154,1.27877 1.509277,1.40741 0.117072,0.34925 -1.747888,1.80958 -3.253405,2.54754 -1.811521,0.88794 -4.076728,1.15878 -6.407372,0.76608 z m 47.087364,0.0174 c -4.69645,-1.02023 -7.70231,-4.52773 -7.952984,-9.28024 -0.190809,-3.61752 0.791414,-6.05714 3.373294,-8.37847 3.10717,-2.79361 7.69711,-3.27548 11.84432,-1.24347 3.81122,1.86739 6.00742,6.60254 5.10043,10.99684 -0.42242,2.04657 -1.09825,3.33072 -2.59509,4.93097 -1.46252,1.56355 -3.18344,2.48901 -5.56841,2.99453 -2.07653,0.44014 -2.08276,0.44011 -4.20156,-0.0202 z m 4.64044,-4.60162 c 2.12997,-1.09561 3.23061,-2.97976 3.23061,-5.53037 0,-5.23584 -6.32531,-7.7594 -9.73623,-3.8844 -2.67054,3.03391 -1.85746,7.67087 1.66644,9.50362 1.12251,0.58381 3.62063,0.53794 4.83918,-0.0889 z m 20.16787,4.45526 c -3.69217,-0.96654 -6.10191,-3.20995 -7.18072,-6.68505 -2.31192,-7.44726 3.77781,-14.437 11.47114,-13.16647 3.62208,0.59817 6.67418,2.94767 7.93927,6.11161 0.45399,1.13542 0.58371,2.01062 0.59026,3.98265 0.008,2.39966 -0.0422,2.62993 -0.99335,4.5542 -1.46578,2.96554 -3.69435,4.60579 -7.29452,5.36887 -2.17922,0.46189 -2.12699,0.46381 -4.53208,-0.16581 z m 5.22798,-4.51461 c 2.25514,-1.09169 3.51882,-3.90597 2.94833,-6.56607 -1.14954,-5.36014 -8.11826,-6.35098 -10.61414,-1.50916 -1.04851,2.03404 -0.61197,5.3451 0.92517,7.01716 1.48603,1.61646 4.58297,2.10258 6.74064,1.05807 z m 29.65031,4.70143 c -2.88762,-0.63214 -5.32593,-2.77644 -5.68696,-5.00123 l -0.16033,-0.988 h 2.11919 2.11918 l 0.34267,0.82727 c 0.35881,0.86624 1.95294,1.80156 3.08961,1.81275 0.90123,0.009 2.70136,-0.79287 2.98964,-1.33153 0.40935,-0.76488 0.29843,-1.98261 -0.22363,-2.45506 -0.26426,-0.23916 -1.70526,-0.75582 -3.20221,-1.14814 -4.84301,-1.26923 -6.63605,-2.93412 -6.63605,-6.16177 0,-1.19676 0.15388,-1.73672 0.77322,-2.71333 2.47757,-3.90672 9.86783,-4.1034 12.51767,-0.33314 0.40985,0.58315 0.81734,1.50488 0.90552,2.04828 l 0.16033,0.988 h -2.14449 c -2.08209,0 -2.15566,-0.0216 -2.52832,-0.74224 -0.76926,-1.4876 -3.0045,-1.84009 -4.37196,-0.68945 -0.96313,0.81043 -1.08613,1.95337 -0.2953,2.74419 0.28531,0.28531 1.20804,0.71324 2.05052,0.95096 0.84247,0.23772 2.15542,0.60763 2.91766,0.82202 1.8506,0.52052 3.75493,1.85094 4.36927,3.05252 1.16717,2.28285 0.3139,5.4744 -1.8618,6.96378 -1.86905,1.27947 -4.95183,1.85578 -7.24343,1.35412 z M 75.670836,201.56969 v -14.99956 l 2.249576,-0.0856 2.249575,-0.0856 -6.17e-4,6.80042 -6.18e-4,6.80042 1.256771,-1.25452 c 2.260529,-2.2565 5.463733,-2.73349 8.628046,-1.28482 1.540268,0.70516 2.458733,1.72274 3.402557,3.76973 0.570983,1.23837 0.607831,1.67986 0.688874,8.25367 l 0.08562,6.94531 h -2.24678 -2.24678 l -0.0878,-6.01927 c -0.08007,-5.48949 -0.136401,-6.11242 -0.639983,-7.07761 -0.3037,-0.58208 -0.946385,-1.32622 -1.42819,-1.65364 -1.615519,-1.09787 -4.750635,-0.63487 -6.145474,0.90757 -1.118344,1.23668 -1.266862,2.19986 -1.266862,8.21595 v 5.76707 h -2.248958 -2.248958 z m 75.670834,-0.15722 v -15.01669 l 2.18281,0.003 2.18281,0.003 0.0683,15.01362 0.0683,15.01361 h -2.25114 -2.25114 z M 54.581929,132.87142 C 42.333958,111.07111 32.275539,93.075154 32.229885,92.880401 c -0.06852,-0.292285 2.516719,-0.358848 14.80971,-0.381311 8.190994,-0.01497 15.076095,0.03712 15.300223,0.115744 0.224129,0.07863 2.375848,3.650502 4.781598,7.937496 8.812431,15.70358 9.663542,17.18725 9.859447,17.18725 0.109791,0 3.325025,-5.56617 7.144965,-12.36927 3.819941,-6.803095 7.046861,-12.477092 7.170934,-12.608878 0.23187,-0.246285 33.992148,-0.400743 34.373578,-0.157264 0.21293,0.135923 0.95573,1.447622 16.40659,28.971872 4.98302,8.87677 9.95937,17.72798 11.05856,19.66935 1.0992,1.94136 1.99743,3.66777 1.99607,3.83645 -0.002,0.24188 -7.10379,13.04739 -13.22959,23.85462 -0.49491,0.87312 -1.0958,1.97445 -1.33532,2.4474 -0.23952,0.47294 -0.50274,0.85718 -0.58492,0.85388 -0.0822,-0.003 -1.76544,-2.89058 -3.74055,-6.41615 -22.99636,-41.04841 -27.61869,-49.13137 -27.91403,-48.81257 -0.17002,0.18353 -2.06708,3.48885 -4.21569,7.34515 -4.712055,8.45717 -3.72835,6.70139 -12.155423,21.69583 -3.802985,6.76672 -8.6955,15.48694 -10.872256,19.37828 -2.176755,3.89133 -4.019629,7.07625 -4.095276,7.0776 -0.07565,0.001 -10.158605,-17.83416 -22.406576,-39.63446 z M 159.94062,118.5658 c -2.8701,-0.70935 -5.14388,-1.86498 -7.76627,-3.94714 l -0.62254,-0.49429 1.64056,-2.55802 c 0.9023,-1.40691 1.68742,-2.55802 1.74472,-2.55802 0.0573,0 0.63517,0.40533 1.28418,0.90073 5.18622,3.95873 11.86927,3.6167 14.02934,-0.718 1.61647,-3.24382 0.0834,-6.70439 -3.54829,-8.00949 -0.68352,-0.24563 -2.42772,-0.49227 -4.02844,-0.56965 l -2.823,-0.13647 -0.70483,-1.570572 c -0.38766,-0.863814 -0.65051,-1.712118 -0.58411,-1.88512 0.15118,-0.393951 6.11407,-7.460838 8.02671,-9.512815 0.78197,-0.838942 1.42177,-1.635686 1.42177,-1.770542 0,-0.142673 -2.12957,-0.237583 -5.09323,-0.226993 -2.80128,0.01001 -6.13503,0.0031 -7.40834,-0.01539 l -2.3151,-0.03359 v -2.910416 -2.910417 h 11.77396 11.77396 v 2.140808 2.140808 l -1.38907,1.65156 c -0.76398,0.908358 -2.91331,3.411443 -4.77629,5.562412 -1.86298,2.150969 -3.33951,3.958568 -3.2812,4.016888 0.0583,0.05832 0.79897,0.286521 1.64589,0.507116 6.43165,1.67523 9.91412,7.268813 8.49285,13.641313 -1.34395,6.02587 -6.51505,9.78622 -13.39218,9.73862 -1.23693,-0.009 -3.0824,-0.22155 -4.10105,-0.47331 z"
       id="path1" /></g></svg>
